<svg role="img" aria-label="Comunidade Manifesto — desde 2019" xmlns="http://www.w3.org/2000/svg" viewBox="557.7 137.7 804.7 804.7" fill="currentColor">
  <defs>
    <style>
      .cls-1 {
        fill:currentColor;
      }
    </style>
  </defs>
  <g>
    <path class="cls-1" d="M1086.36,476.7c-33.83-16.65-78.71-25.83-126.36-25.83s-92.53,9.17-126.36,25.83c-34.88,17.17-54.1,40.39-54.1,65.38s19.21,48.21,54.1,65.38c33.83,16.65,78.71,25.83,126.36,25.83s92.53-9.17,126.36-25.83c34.88-17.17,54.1-40.39,54.1-65.38s-19.21-48.21-54.1-65.38ZM1084.6,542.08c0-7.11-1.14-14.21-3.39-21.14h44c3.91,6.88,5.89,13.99,5.89,21.14s-1.96,14.2-5.83,21.05h-44.03c2.24-6.9,3.37-13.98,3.37-21.05ZM1077.41,511.58c-8.47-17.42-24.24-32.71-44.79-43.55,18.41,4.18,35.07,9.91,49.6,17.07,15.76,7.76,27.98,16.66,36.36,26.48h-41.17ZM1020.17,572.5h46.78c-13.18,23.28-40.78,41.08-74.53,48.12,12.93-10.92,22.72-27.85,27.74-48.12ZM1022.11,563.13c1.15-6.9,1.73-13.98,1.73-21.05s-.59-14.21-1.74-21.14h49.22c2.61,6.92,3.93,14.03,3.93,21.14s-1.31,14.17-3.9,21.05h-49.24ZM1020.15,511.58c-5.03-20.23-14.81-37.14-27.72-48.04,33.69,7.03,61.28,24.8,74.48,48.04h-46.75ZM1032.62,616.13c20.59-10.85,36.37-26.18,44.83-43.64h41.21c-8.38,9.85-20.62,18.79-36.43,26.57-14.53,7.15-31.2,12.89-49.6,17.07ZM960,460.23c30.04,0,54.47,36.72,54.47,81.85s-24.44,81.85-54.47,81.85-54.47-36.72-54.47-81.85,24.44-81.85,54.47-81.85ZM842.55,572.5c8.46,17.46,24.24,32.78,44.83,43.64-18.41-4.18-35.07-9.91-49.6-17.07-15.81-7.78-28.06-16.72-36.43-26.57h41.21ZM848.69,520.94h49.22c-1.15,6.93-1.74,14.04-1.74,21.14s.58,14.15,1.73,21.05h-49.24c-2.59-6.89-3.9-13.97-3.9-21.05s1.32-14.23,3.93-21.14ZM853.1,511.58c13.2-23.23,40.78-41,74.48-48.04-12.91,10.9-22.69,27.81-27.72,48.04h-46.75ZM887.38,468.03c-20.55,10.84-36.32,26.13-44.79,43.55h-41.17c8.38-9.82,20.6-18.73,36.36-26.48,14.53-7.15,31.19-12.89,49.6-17.07ZM899.83,572.5c5.03,20.27,14.81,37.21,27.74,48.12-33.74-7.04-61.35-24.85-74.53-48.12h46.78ZM838.76,563.13h-44.03c-3.87-6.85-5.83-13.94-5.83-21.05s1.98-14.26,5.89-21.14h44c-2.25,6.93-3.39,14.03-3.39,21.14s1.13,14.15,3.37,21.05Z"></path>
    <path class="cls-1" d="M965.76,540.55l10.71-30.52h17.65v64.11h-11.62v-19.54c0-12,.12-22.6.36-31.78-1.32,4.5-2.94,9.42-4.86,14.77l-12.97,36.55h-9.99l-13.05-36.55c-2.28-6.66-3.87-11.53-4.77-14.59.24,9.12.36,19.66.36,31.6v19.54h-11.71v-64.11h17.65l11.08,31.15c.72,2.1,2.55,7.89,5.49,17.38,1.92-6.66,3.81-12.66,5.67-18.01Z"></path>
  </g>
  <g>
    <polygon class="cls-1" points="932.36 383.03 918.07 383.03 918.07 376.87 931.07 376.87 931.07 371.91 918.07 371.91 918.07 366.42 932.43 366.42 932.43 361.27 912.41 361.27 912.41 388.18 932.36 388.18 932.36 383.03"></polygon>
    <path class="cls-1" d="M949.81,383.15c-.84.6-2.1.91-3.74.91-2.03,0-3.57-.39-4.6-1.15-1-.74-1.51-2-1.54-3.74v-.34h-5.59v.35c.03,3.06,1.07,5.46,3.09,7.11,2,1.64,4.86,2.47,8.48,2.47,3.4,0,6.1-.74,8.01-2.19,1.95-1.47,2.93-3.57,2.93-6.22,0-2.23-.73-4.01-2.16-5.28-1.4-1.25-3.69-2.2-6.81-2.82l-2.28-.44c-1.86-.38-3.15-.84-3.86-1.37-.66-.5-.99-1.21-.99-2.16s.35-1.61,1.07-2.11c.75-.52,1.86-.78,3.3-.78,1.88,0,3.25.33,4.08.99.81.65,1.27,1.68,1.36,3.07l.02.32h5.5v-.36c-.12-2.74-1.1-4.91-2.96-6.44-1.83-1.52-4.55-2.29-8.08-2.29-3.11,0-5.58.7-7.35,2.08-1.8,1.4-2.71,3.31-2.71,5.67,0,4.42,2.93,7.21,8.71,8.29l2.21.44c1.99.41,3.36.87,4.09,1.38.68.47,1.01,1.15,1.01,2.07,0,1.12-.4,1.95-1.22,2.54Z"></path>
    <polygon class="cls-1" points="967.08 388.18 972.78 388.18 972.78 366.42 981.17 366.42 981.17 361.27 958.68 361.27 958.68 366.42 967.08 366.42 967.08 388.18"></polygon>
    <path class="cls-1" d="M1004.07,364.87c-2.34-2.39-5.69-3.6-9.97-3.6h-10.36v26.9h10.36c4.27,0,7.63-1.22,9.97-3.64,2.34-2.39,3.52-5.69,3.52-9.81s-1.19-7.44-3.52-9.85ZM1001.75,374.72c0,2.77-.68,4.9-2.01,6.34-1.32,1.43-3.25,2.15-5.71,2.15h-4.63v-16.98h4.63c2.47,0,4.39.73,5.71,2.15,1.33,1.44,2.01,3.57,2.01,6.34Z"></path>
    <path class="cls-1" d="M928.8,715.42c.51-.6,1.42-1.25,2.71-1.94l2.35-1.25c2.37-1.18,4.13-2.48,5.23-3.86,1.12-1.4,1.68-3.13,1.68-5.13,0-2.33-.84-4.25-2.51-5.69-1.66-1.43-3.92-2.16-6.73-2.16-3.06,0-5.44.81-7.08,2.4-1.65,1.6-2.47,3.84-2.45,6.67v.34h5.34v-.34c0-2.9,1.33-4.3,4.05-4.3,1.21,0,2.17.31,2.84.93.67.62,1,1.44,1,2.52,0,1.01-.29,1.86-.85,2.53-.58.7-1.6,1.4-3.04,2.09l-2.49,1.28c-2.83,1.29-4.73,2.96-5.64,4.96-.73,1.58-1.15,3.39-1.25,5.38l-.13,2.26h19.22v-4.76h-13.07c.12-.78.4-1.42.82-1.92Z"></path>
    <path class="cls-1" d="M954.15,695.4c-3.43,0-6.08,1.2-7.87,3.57-1.77,2.34-2.66,5.73-2.66,10.07s.89,7.74,2.66,10.07c1.79,2.37,4.43,3.57,7.87,3.57s6.09-1.2,7.89-3.57c1.78-2.34,2.68-5.73,2.68-10.07s-.9-7.74-2.68-10.07c-1.8-2.37-4.45-3.57-7.89-3.57ZM958.99,709.04c0,5.97-1.58,8.88-4.84,8.88s-4.8-2.9-4.8-8.88,1.57-8.88,4.8-8.88,4.84,2.9,4.84,8.88Z"></path>
    <path class="cls-1" d="M974.16,696.24c-.34,1.58-.97,2.72-1.89,3.39-.93.68-2.3,1.09-4.09,1.2l-.89.06v4.06h5.86v17.16h5.51v-26.14h-4.45l-.06.27Z"></path>
    <path class="cls-1" d="M997.26,697.43h0c-1.7-1.26-3.78-1.89-6.21-1.89-2.86,0-5.24.85-7.06,2.52-1.83,1.7-2.75,3.95-2.75,6.68,0,2.44.81,4.53,2.42,6.21,1.61,1.71,3.82,2.57,6.58,2.57,2.5,0,4.5-.82,5.96-2.45-.17,2.4-.62,4.22-1.36,5.39-.82,1.31-2.03,1.95-3.71,1.95-2.48,0-3.89-1.01-4.31-3.08l-.06-.28h-5.18l.06.4c.35,2.3,1.38,4.12,3.08,5.42,1.68,1.29,3.85,1.95,6.45,1.95,3.32,0,5.9-1.25,7.66-3.72,1.74-2.43,2.62-5.89,2.62-10.28,0-5.45-1.4-9.28-4.18-11.39ZM987.85,701.4c.83-.86,1.88-1.27,3.2-1.27s2.4.41,3.22,1.25c.82.84,1.22,1.91,1.22,3.26s-.4,2.44-1.22,3.26c-.84.85-1.9,1.26-3.22,1.26s-2.38-.41-3.22-1.26c-.82-.82-1.22-1.89-1.22-3.26s.42-2.4,1.24-3.24Z"></path>
  </g>
  <path class="cls-1" d="M960,942.34c-221.85,0-402.34-180.49-402.34-402.34s180.49-402.34,402.34-402.34,402.34,180.49,402.34,402.34-180.49,402.34-402.34,402.34ZM960,156.95c-211.22,0-383.05,171.84-383.05,383.05s171.84,383.05,383.05,383.05,383.05-171.84,383.05-383.05-171.84-383.05-383.05-383.05Z"></path>
  <g>
    <g>
      <path class="cls-1" d="M713.52,505.35c-1.68,12.5-7.15,22.06-16.38,28.66-9.25,6.69-20.77,9.1-34.57,7.24-13.88-1.87-24.4-7.21-31.56-16.03-7.09-8.72-9.78-19.42-8.07-32.08,1.37-10.15,5.25-18.43,11.65-24.84,6.4-6.41,14.88-9.81,25.43-10.21l-2.25,16.68c-5.88.7-10.56,2.81-14.06,6.35-3.49,3.54-5.63,8.19-6.4,13.95-1.04,7.71.88,14.15,5.77,19.31,4.88,5.16,12.16,8.39,21.82,9.7,9.74,1.31,17.63.14,23.66-3.51,6.03-3.65,9.57-9.37,10.62-17.17.81-6.01-.28-11.4-3.27-16.19-2.99-4.78-7.6-8.05-13.81-9.79l2.21-16.44c10.9,2.54,18.84,7.99,23.83,16.35,5,8.28,6.8,17.61,5.4,28Z"></path>
      <path class="cls-1" d="M739.7,424.43c-6.13,11.58-14.76,18.97-25.9,22.16-11.21,3.15-22.86,1.53-34.95-4.87-12.09-6.4-19.99-15.12-23.69-26.16-3.63-11-2.38-22.29,3.75-33.88,6.13-11.58,14.76-18.97,25.9-22.16,11.03-3.15,22.66-1.49,34.9,4.98,12.24,6.47,20.15,15.16,23.75,26.05,3.63,11,2.38,22.3-3.75,33.88ZM686.95,426.4c8.47,4.48,16.3,5.89,23.48,4.22,7.18-1.67,12.63-6.01,16.35-13.03,3.75-7.09,4.3-14.08,1.64-20.96-2.63-6.76-8.21-12.41-16.76-16.93-8.54-4.52-16.35-5.96-23.42-4.33-7.18,1.67-12.65,6.05-16.41,13.14-3.72,7.02-4.24,13.97-1.58,20.85,2.66,6.88,8.23,12.56,16.7,17.04Z"></path>
      <path class="cls-1" d="M773.74,309.57l-15.79-41.22,18.36-15.58,56.58,66.72-12.09,10.25-17.24-20.33c-10.6-12.49-19.82-23.63-27.68-33.4,2.6,5.85,5.26,12.4,7.97,19.66l18.77,49.49-10.4,8.82-45.85-26.52c-8.26-4.92-14.2-8.58-17.84-10.97,8.3,9.29,17.73,20.14,28.27,32.57l17.25,20.33-12.18,10.33-56.58-66.72,18.37-15.58,39.02,22.65c2.6,1.55,9.62,5.96,21.05,13.24-3.88-8.63-7.21-16.54-9.99-23.75Z"></path>
      <path class="cls-1" d="M876.9,306.1c-10.75,3.76-20.2,3.84-28.36.23-8.16-3.61-14.06-10.59-17.68-20.95l-18.02-51.49,15.66-5.48,18.06,51.6c2.19,6.26,5.48,10.45,9.86,12.56,4.38,2.11,9.63,2.1,15.74-.04,6.11-2.14,10.22-5.4,12.33-9.78,2.11-4.38,2.07-9.71-.12-15.97l-18.06-51.6,15.66-5.48,18.02,51.49c3.68,10.51,3.46,19.68-.66,27.5-4.12,7.82-11.59,13.62-22.41,17.41Z"></path>
      <path class="cls-1" d="M978.35,225.45l-.37-22.85,15.97-.26,1.42,87.47-18.43.3-24.96-38.55c-6.8-10.29-12.15-18.97-16.03-26.04.47,9.17.87,23.29,1.18,42.37l.37,22.85-15.97.26-1.42-87.47,18.43-.3,25.08,38.55c7.48,11.68,12.78,20.36,15.91,26.04-.53-12.2-.92-26.32-1.18-42.37Z"></path>
      <path class="cls-1" d="M1025.66,299.31l-16.12-3.89,20.53-85.04,16.12,3.89-20.53,85.04Z"></path>
      <path class="cls-1" d="M1081.37,223.75l29.65,15.41c12.43,6.46,20.23,14.9,23.4,25.31,3.13,10.49,1.59,21.73-4.65,33.72s-14.52,19.69-24.87,23.08c-10.38,3.47-21.79,1.97-34.22-4.49l-29.65-15.41,40.34-77.62ZM1062.33,296.38l14.72,7.65c7.63,3.97,14.68,4.79,21.14,2.47,6.47-2.32,11.91-7.73,16.33-16.23s5.72-16.07,3.9-22.69c-1.82-6.62-6.55-11.92-14.18-15.88l-14.72-7.65-27.19,52.33Z"></path>
      <path class="cls-1" d="M1167.38,396.2l-12.3-12.55,8.96-18.42-26.83-27.37-18.51,8.68-11.96-12.2,85.78-37.46,13.59,13.86-38.73,85.45ZM1159.9,327.31l-9.08,4.25,19.78,20.18,4.35-9.08c3.2-7.15,7.81-16.72,13.84-28.71-9.66,4.65-19.29,9.1-28.89,13.35Z"></path>
      <path class="cls-1" d="M1247.73,362.37l14.33,30.19c6.01,12.65,7.13,24.09,3.36,34.31-3.84,10.25-11.86,18.28-24.07,24.07-12.21,5.79-23.46,6.92-33.76,3.37-10.37-3.51-18.56-11.59-24.56-24.25l-14.33-30.19,79.03-37.51ZM1188.69,408.76l7.11,14.98c3.69,7.77,8.81,12.68,15.36,14.74,6.55,2.06,14.16,1.03,22.82-3.08,8.66-4.11,14.26-9.35,16.81-15.73,2.55-6.38,1.98-13.45-1.71-21.22l-7.11-14.98-53.28,25.29Z"></path>
      <path class="cls-1" d="M1297.57,531.33l-14.75,1.87-6.02-47.54-20.48,2.59,5.45,43.03-14.14,1.79-5.45-43.03-22.67,2.87,5.99,47.29-14.75,1.87-8.08-63.75,86.79-11,8.11,63.99Z"></path>
    </g>
    <g>
      <path class="cls-1" d="M696.55,667.29l43.97-3.87,9.94,21.93-79.68,36.11-6.54-14.44,24.28-11c14.92-6.76,28.16-12.58,39.71-17.45-6.34.89-13.37,1.65-21.09,2.27l-52.74,4.47-5.63-12.42,38.08-36.82c7-6.59,12.14-11.3,15.44-14.15-11.21,5.44-24.23,11.52-39.08,18.25l-24.28,11.01-6.59-14.55,79.68-36.11,9.94,21.93-32.48,31.31c-2.21,2.08-8.37,7.62-18.51,16.61,9.36-1.37,17.89-2.4,25.58-3.09Z"></path>
      <path class="cls-1" d="M752.51,810.21l-12.49-12.35,8.67-18.55-27.26-26.95-18.37,8.96-12.14-12.01,85.19-38.79,13.8,13.65-37.4,86.05ZM743.96,741.45l-9.01,4.39,20.09,19.87,4.21-9.15c3.09-7.2,7.55-16.84,13.39-28.92-9.59,4.8-19.15,9.4-28.68,13.8Z"></path>
      <path class="cls-1" d="M859.97,794.98l9.88-20.61,14.4,6.91-37.82,78.88-16.62-7.97-5.1-45.64c-1.49-12.25-2.39-22.4-2.7-30.45-3.67,8.41-9.63,21.23-17.88,38.43l-9.88,20.61-14.4-6.91,37.82-78.88,16.62,7.97,5.21,45.69c1.47,13.79,2.33,23.92,2.59,30.4,4.98-11.15,10.94-23.96,17.88-38.43Z"></path>
      <path class="cls-1" d="M898.2,871.87l-16.24-3.36,17.74-85.66,16.24,3.36-17.74,85.66Z"></path>
      <path class="cls-1" d="M993.45,789.19l.24,14.86-45.21.73.33,20.64,41.15-.67.23,14.25-41.15.67.61,37.71-16.59.27-1.42-87.47,61.79-1Z"></path>
      <path class="cls-1" d="M1063.58,769.36l4.28,14.24-45.89,13.78,5.94,19.77,41.54-12.47,4.1,13.65-41.54,12.47,6.57,21.89,45.66-13.71,4.28,14.24-61.54,18.48-25.16-83.78,61.78-18.55Z"></path>
      <path class="cls-1" d="M1148.71,821.05c-9.86,6.62-18.98,9.54-27.35,8.75-8.37-.79-15.36-5.28-20.95-13.46l13.57-9.11c3.54,5.12,7.57,7.79,12.11,8,4.53.21,9.72-1.64,15.57-5.57,4.76-3.2,7.79-6.54,9.1-10.03,1.31-3.49.82-6.94-1.47-10.34-1.92-2.86-4.45-4.31-7.6-4.37-3.15-.06-7.93,1.23-14.35,3.86l-6.94,2.89c-17.53,7.53-30.25,5.42-38.15-6.35-4.2-6.26-5.16-12.83-2.89-19.74,2.27-6.9,7.62-13.18,16.06-18.85,9.59-6.44,18.22-9.27,25.89-8.5,7.67.77,14.11,4.74,19.31,11.9l-13.36,8.97c-3.06-3.96-6.49-6.1-10.29-6.41-3.81-.3-8.43,1.37-13.87,5.02-4.22,2.83-6.92,5.78-8.12,8.85-1.19,3.07-.83,6.03,1.09,8.89,1.96,2.92,4.51,4.47,7.63,4.64,3.12.17,7.71-.98,13.74-3.45l7.15-3.02c9.64-4.01,17.48-5.6,23.51-4.76,6.03.83,11.04,4.21,15.01,10.12,4.75,7.07,5.85,14.3,3.31,21.68-2.54,7.38-8.44,14.18-17.69,20.39Z"></path>
      <path class="cls-1" d="M1127.52,727.64l46.54-55.9,11.42,9.51-17.92,21.53,55.8,46.46-10.69,12.84-55.8-46.46-17.92,21.53-11.42-9.51Z"></path>
      <path class="cls-1" d="M1273.03,667.79c-4.94,12.14-12.79,20.35-23.55,24.64-10.84,4.26-22.6,3.81-35.27-1.35-12.67-5.15-21.4-13.04-26.19-23.65-4.71-10.58-4.6-21.94.34-34.08,4.94-12.14,12.79-20.35,23.55-24.64,10.66-4.24,22.4-3.75,35.22,1.46,12.82,5.22,21.57,13.06,26.24,23.54,4.71,10.59,4.6,21.95-.34,34.08ZM1220.74,675.03c8.88,3.61,16.81,4.23,23.79,1.85,6.98-2.38,11.97-7.25,14.96-14.61,3.02-7.43,2.87-14.44-.47-21.02-3.29-6.47-9.42-11.52-18.37-15.17-8.95-3.64-16.87-4.29-23.74-1.96-6.98,2.38-11.98,7.28-15.01,14.72-2.99,7.36-2.82,14.33.52,20.9,3.34,6.58,9.45,11.67,18.32,15.28Z"></path>
    </g>
  </g>
</svg>
